Motion_pl03
version=1
nRows=12
nColumns=43
inDegrees=yes
endheader
time	pelvis_tilt	pelvis_list	pelvis_rotation	pelvis_tx	pelvis_ty	pelvis_tz	hip_flexion_r	hip_adduction_r	hip_rotation_r	knee_angle_r	ankle_angle_r	subtalar_angle_r	mtp_angle_r	hip_flexion_l	hip_adduction_l	hip_rotation_l	knee_angle_l	ankle_angle_l	subtalar_angle_l	mtp_angle_l	lumbar_extension	lumbar_bending	lumbar_rotation	neck_flexion	neck_lateral_bending	neck_rotation	arm_flex_r	arm_add_r	arm_rot_r	elbow_flex_r	pro_sup_r	wrist_flex_r	wrist_dev_r	hand_finger_flex_r	arm_flex_l	arm_add_l	arm_rot_l	elbow_flex_l	pro_sup_l	wrist_flex_l	wrist_dev_l	hand_finger_flex_l
      3.28000000	     -0.85836280	     -3.77943047	     90.05214503	      0.00473741	      0.36216964	      0.47243253	    108.79125282	     -6.69300979	      5.94120024	   -139.57229954	      7.31415930	     22.80268568	     33.18305503	    104.38380970	    -17.73374488	      6.27376402	   -139.93532792	     28.46767435	     18.94361177	     25.81722150	    -51.81887814	     -8.08538271	     -0.43718107	     24.70346173	     10.13797721	     -6.56929209	    109.43095371	    -19.26263852	     20.15525191	     35.16267693	    124.06820180	     -6.18367292	    -14.69268524	    -38.34165229	    127.65393304	    -10.43570157	     47.32203909	     36.90433919	    139.94711560	    -18.48898041	    -10.82512148	    -22.15420741
      3.28250000	     -0.75251382	     -3.66662755	     89.99052115	      0.00494325	      0.36201999	      0.47260207	    108.80451347	     -6.68163562	      5.88267408	   -139.62592472	      6.77932670	     23.17635615	     33.28634999	    104.42769001	    -17.73735970	      6.57789700	   -139.98165562	     28.26349306	     19.27708266	     25.97504261	    -52.12413426	     -8.03383099	     -0.35895209	     24.97299807	      9.92075510	     -6.58085063	    111.40439166	    -18.96687500	     21.50630826	     33.54074527	    124.98959947	     -5.33017062	    -14.61960859	    -38.56326184	    129.01222524	     -9.69920353	     47.81216809	     35.36779238	    139.90392812	    -17.93828587	    -11.34607593	    -23.13319580
      3.28500000	     -0.75329307	     -3.91905597	     89.83462963	      0.00567017	      0.36144267	      0.47193300	    109.26063281	     -6.47500228	      5.90896146	   -139.73313870	      6.99871909	     23.47206506	     33.31403192	    104.70540810	    -17.95325072	      6.72030620	   -140.07787857	     28.31596444	     19.30039470	     26.02360840	    -51.95654497	     -8.16303269	     -0.33838189	     25.27978186	      9.73984685	     -6.51541260	    112.26487816	    -18.65017214	     21.60049825	     33.16154298	    125.10727073	     -5.21244275	    -14.49288349	    -38.65929395	    129.71337730	     -9.34238207	     47.66258925	     34.87803726	    139.78873990	    -17.79272439	    -11.22734675	    -23.37060563
      3.28750000	     -0.62919577	     -3.78206063	     89.80180096	      0.00562364	      0.36168317	      0.47187023	    109.16461542	     -6.52151246	      5.90766908	   -139.75712040	      6.74303098	     23.90086610	     33.44641812	    104.65933208	    -17.89789517	      7.03363409	   -140.12049429	     28.17935822	     19.59928618	     26.24414281	    -52.27563179	     -8.02763349	     -0.19032005	     25.28046485	      9.61671101	     -6.53291361	    113.75449229	    -18.42166822	     22.45544415	     32.21305583	    125.84517645	     -4.69894806	    -14.52471712	    -39.16053903	    130.68883990	     -8.86898603	     47.83155856	     33.94656315	    139.54172740	    -17.40959996	    -11.57054026	    -24.59861604
      3.29000000	     -0.63361723	     -4.05658644	     89.68767559	      0.00638238	      0.36122084	      0.47121437	    109.58735220	     -6.34611615	      5.93513013	   -139.84910372	      6.90115257	     24.19618875	     33.47318250	    104.93332880	    -18.08512686	      7.14605183	   -140.17501901	     28.21500019	     19.60710674	     26.29153254	    -52.07448914	     -8.15197526	     -0.19645839	     25.51418796	      9.48649497	     -6.47575245	    114.50546435	    -18.12825932	     22.48714704	     31.90659823	    125.91793152	     -4.58160341	    -14.36865788	    -39.23970044	    131.31485213	     -8.54398241	     47.68188952	     33.55169514	    139.44056539	    -17.24739422	    -11.39613546	    -24.78358773
      3.29250000	     -0.63187253	     -4.19689631	     89.61604697	      0.00664120	      0.36116413	      0.47063642	    109.79057346	     -6.29327659	      6.09663742	   -139.88872130	      6.93739000	     24.31926302	     33.47869409	    105.05327739	    -18.13220975	      7.28228551	   -140.21946793	     28.22607991	     19.60404113	     26.30206521	    -52.03851719	     -8.17196069	     -0.15389021	     25.40155971	      9.51423865	     -6.47404691	    115.12917126	    -17.98877685	     22.45218486	     32.00524076	    125.93577551	     -4.58429055	    -14.35518288	    -39.25810201	    131.83495500	     -8.43837969	     47.54719927	     33.51994786	    139.40638587	    -17.24973102	    -11.33740639	    -24.83423057
      3.29500000	     -0.58605580	     -4.33490344	     89.61477568	      0.00671743	      0.36081561	      0.47033532	    110.02221671	     -6.30068209	      6.14837337	   -139.96608548	      6.69744793	     24.97868993	     33.53148146	    105.28853517	    -18.05864695	      7.41212452	   -140.33538930	     28.09249559	     19.77295417	     26.39664412	    -51.95796322	     -8.13919029	     -0.14989416	     25.62313198	      9.50562987	     -6.40034401	    116.36635413	    -17.57644520	     22.97053706	     30.90516680	    126.32940537	     -4.03674836	    -13.94080681	    -39.28161244	    132.64019018	     -7.77021470	     47.57197844	     32.45546238	    139.33785897	    -16.84772757	    -11.08022641	    -25.20415956
      3.29750000	     -0.57654221	     -4.49725659	     89.58981284	      0.00726667	      0.36106608	      0.46983713	    110.16703059	     -6.25100101	      6.23267724	   -139.95937192	      6.78158402	     25.08474958	     33.53678463	    105.35272361	    -18.13187910	      7.53270620	   -140.25166660	     28.09812188	     19.76359066	     26.40541031	    -51.90876705	     -8.17401605	     -0.17965136	     25.49300243	      9.51328646	     -6.40004048	    116.91561264	    -17.45773778	     22.96134312	     31.02062420	    126.35476312	     -4.03647884	    -13.94570453	    -39.29791977	    133.12525868	     -7.67642362	     47.43868051	     32.45714931	    139.30412661	    -16.87333204	    -11.03299145	    -25.26156460
      3.30000000	     -0.55591977	     -4.69531692	     89.54837779	      0.00779199	      0.36140422	      0.46939370	    110.31356103	     -6.16045942	      6.29669119	   -139.92023395	      6.86743748	     25.25028883	     33.54290055	    105.46390319	    -18.16246581	      7.61595090	   -140.20452715	     28.10246201	     19.76736547	     26.41668918	    -51.83551579	     -8.21744411	     -0.21970475	     25.40688274	      9.51775740	     -6.38907817	    117.51538286	    -17.28597803	     22.98487661	     31.02018703	    126.39782474	     -3.99230912	    -13.89957960	    -39.29900234	    133.64962931	     -7.52320644	     47.29981588	     32.34797417	    139.26532361	    -16.86619100	    -10.93973243	    -25.31695193
      3.30250000	     -0.50228158	     -4.90038750	     89.64366607	      0.00826445	      0.36151694	      0.46903642	    110.48984164	     -6.18189570	      6.24356432	   -139.95470801	      6.85656690	     25.93968586	     33.57861987	    105.62770656	    -18.15029571	      7.70708488	   -140.12249966	     28.04002214	     19.84748334	     26.48161058	    -51.67601700	     -8.17601772	     -0.34576436	     25.68379543	      9.51621418	     -6.26465573	    118.60003091	    -16.79407175	     23.45198564	     29.86837808	    126.72974816	     -3.46241455	    -13.42672917	    -39.23316844	    134.36257013	     -6.82615363	     47.22550013	     31.22724453	    139.18385439	    -16.54944987	    -10.53887288	    -25.55940952
      3.30500000	     -0.47430710	     -5.02854871	     89.59624171	      0.00845537	      0.36191123	      0.46851181	    110.53909376	     -6.13022010	      6.38192877	   -139.91253379	      6.91416643	     26.04540604	     33.58415115	    105.66700064	    -18.10889406	      7.79636502	   -140.13643976	     28.04801788	     19.84357605	     26.49221202	    -51.64259248	     -8.17709681	     -0.32507061	     25.54285200	      9.55479444	     -6.25991896	    119.12329506	    -16.68419988	     23.44836398	     29.97832092	    126.75983450	     -3.46112556	    -13.43461603	    -39.24859657	    134.78603131	     -6.75456224	     47.12392317	     31.23001289	    139.15833624	    -16.57677319	    -10.50435347	    -25.62081245
      3.30750000	     -0.32072185	     -4.68050491	     89.88377264	      0.00815158	      0.36324966	      0.46847145	    110.02783908	     -6.43511138	      6.37645252	   -139.89615239	      7.30829082	     26.94902009	     33.81156170	    105.21121136	    -17.75311372	      7.83786760	   -140.04098860	     28.03404675	     19.72238736	     26.87235427	    -52.24005871	     -7.77060339	     -0.43530759	     25.82385750	      9.22796136	     -6.11650851	    120.64217051	    -16.33423311	     24.54097085	     28.81559668	    127.70634196	     -2.66923280	    -13.50548964	    -39.89587543	    135.70807603	     -6.33817212	     47.24713281	     30.21871346	    138.84384105	    -16.25320925	    -10.57922382	    -27.50719863
